<svg width="512" height="512" viewBox="0 0 512 512" fill="none" xmlns="http://www.w3.org/2000/svg">
<g clip-path="url(#clip0_25_60)">
<path d="M472.87 39.1266C466.836 33.0918 457.052 33.0918 451.017 39.1266L396.383 93.7605L418.236 115.614L472.87 60.98C478.905 54.9451 478.905 45.1614 472.87 39.1266Z" fill="#053663"/>
<path d="M85.5012 404.578L269.886 220.193L291.736 242.043L107.351 426.428L85.5012 404.578Z" fill="#DCE0E7"/>
<path d="M118.32 393.678L63.6862 426.458L118.32 437.386L134.71 420.995C137.728 417.978 137.728 413.086 134.71 410.068L118.32 393.678Z" fill="#96A1B6"/>
<path d="M118.32 393.678L101.93 377.288C98.9124 374.27 94.02 374.27 91.0026 377.288L74.6123 393.678V437.385L118.32 393.678Z" fill="#B9C1CE"/>
<path d="M9.05225 502.946C21.1219 515.015 40.6903 515.015 52.759 502.946L118.32 437.385L96.4667 415.531L41.8328 448.312L9.05225 502.946Z" fill="#0C457A"/>
<path d="M74.6123 393.678L9.05122 459.239C-3.01846 471.309 -3.01846 490.877 9.05122 502.946L96.4657 415.531L74.6123 393.678Z" fill="#1A68B0"/>
<path d="M44.3124 69.9673C39.2779 74.393 41.8709 82.7406 48.5352 83.4524C78.6496 86.6707 105.962 98.4787 126.889 119.407C150.212 142.729 162.209 173.981 163.612 208.204C163.694 210.192 164.538 211.988 165.861 213.305L429.458 82.5418C323.766 -23.1503 155.004 -27.3349 44.3124 69.9673V69.9673Z" fill="#1A68B0"/>
<path d="M429.458 82.5417L424.405 441.064C426.347 448.311 427.728 455.796 428.547 463.465C429.258 470.13 437.606 472.722 442.032 467.688C539.339 356.993 535.15 188.234 429.458 82.5417V82.5417Z" fill="#053663"/>
<path d="M429.458 82.5417L298.695 346.14C300.012 347.462 301.808 348.306 303.796 348.388C338.019 349.791 369.271 361.787 392.593 385.111C408.192 400.71 418.721 419.856 424.406 441.065C518.38 331.311 522.198 175.28 429.458 82.5417V82.5417Z" fill="#0C457A"/>
<path d="M429.458 82.5417C393.006 46.0896 275.322 104.597 165.86 213.305C167.176 214.617 168.964 215.455 170.943 215.536C205.166 216.939 236.418 228.935 259.74 252.259C283.063 275.582 295.06 306.833 296.463 341.056C296.545 343.035 297.382 344.823 298.694 346.14C407.407 236.675 465.91 118.994 429.458 82.5417V82.5417Z" fill="#105493"/>
</g>
<defs>
<clipPath id="clip0_25_60">
<rect width="512" height="512" fill="white"/>
</clipPath>
</defs>
</svg>
