<svg width="100" height="100" viewBox="0 0 308 308" fill="none" xmlns="http://www.w3.org/2000/svg">
<g clip-path="url(#clip0_25_60)">
<path d="M284.461 23.5371C280.831 19.9067 274.945 19.9067 271.315 23.5371L238.449 56.4028L251.595 69.549L284.461 36.6832C288.091 33.0529 288.091 27.1674 284.461 23.5371Z" fill="#053663"/>
<path d="M51.4344 243.379L162.353 132.46L175.498 145.604L64.5787 256.523L51.4344 243.379Z" fill="#DCE0E7"/>
<path d="M71.1769 236.822L38.3112 256.541L71.1769 263.115L81.0367 253.255C82.8519 251.44 82.8519 248.497 81.0367 246.682L71.1769 236.822Z" fill="#96A1B6"/>
<path d="M71.1769 236.822L61.3172 226.962C59.502 225.147 56.5589 225.147 54.7438 226.962L44.884 236.822V263.114L71.1769 236.822Z" fill="#B9C1CE"/>
<path d="M5.4455 302.553C12.7062 309.814 24.4778 309.814 31.7378 302.553L71.1769 263.114L58.0308 249.968L25.1651 269.688L5.4455 302.553Z" fill="#0C457A"/>
<path d="M44.884 236.822L5.44489 276.261C-1.81578 283.522 -1.81578 295.293 5.44489 302.553L58.0302 249.968L44.884 236.822Z" fill="#1A68B0"/>
<path d="M26.6567 42.0897C23.6282 44.752 25.188 49.7736 29.197 50.2018C47.3127 52.1379 63.7428 59.2411 76.3318 71.8308C90.3617 85.8606 97.579 104.661 98.423 125.248C98.472 126.444 98.9802 127.524 99.7759 128.317L258.346 49.654C194.766 -13.9264 93.2446 -16.4437 26.6567 42.0897Z" fill="#1A68B0"/>
<path d="M258.346 49.654L255.306 265.328C256.474 269.687 257.305 274.19 257.798 278.803C258.226 282.813 263.247 284.372 265.91 281.343C324.446 214.754 321.926 113.234 258.346 49.654Z" fill="#053663"/>
<path d="M258.346 49.654L179.683 208.225C180.476 209.02 181.556 209.528 182.752 209.577C203.339 210.421 222.139 217.638 236.169 231.668C245.553 241.052 251.887 252.57 255.307 265.328C311.838 199.304 314.135 105.442 258.346 49.654Z" fill="#0C457A"/>
<path d="M258.346 49.654C236.418 27.7258 165.623 62.9217 99.7753 128.317C100.567 129.105 101.642 129.61 102.833 129.658C123.42 130.502 142.22 137.719 156.25 151.75C170.28 165.78 177.497 184.579 178.341 205.166C178.39 206.357 178.894 207.433 179.683 208.225C245.081 142.375 280.274 71.5823 258.346 49.654Z" fill="#105493"/>
</g>
<defs>
<clipPath id="clip0_25_60">
<rect width="308" height="308" fill="white"/>
</clipPath>
</defs>
</svg>
